<svg width="64" height="64" viewBox="0 0 64 64" fill="none" xmlns="http://www.w3.org/2000/svg">
  <rect width="64" height="64" rx="14" fill="#4CAF50"/>
  <path d="M54 32L50 24C49 22 47 21 45 21H19C17 21 15 22 14 24L10 32V44C10 45.1 10.9 46 12 46H14C15.1 46 16 45.1 16 44V42H48V44C48 45.1 48.9 46 50 46H52C53.1 46 54 45.1 54 44V32Z" fill="none" stroke="white" stroke-width="2.5"/>
  <circle cx="18" cy="38" r="3" fill="none" stroke="white" stroke-width="2"/>
  <circle cx="46" cy="38" r="3" fill="none" stroke="white" stroke-width="2"/>
  <path d="M16 30L20 22H44L48 30" fill="none" stroke="white" stroke-width="2" stroke-linejoin="round"/>
  <path d="M20 23C20 23 25 21 32 21C39 21 44 23 44 23" stroke="white" stroke-width="2" stroke-linecap="round"/>
  <circle cx="52" cy="12" r="6" fill="#52b788"/>
</svg>
